<?xml version="1.0" encoding="UTF-8" standalone="no"?>
<svg
   enable-background="new 0 0 512 512"
   height="512"
   viewBox="0 0 512 512"
   width="512"
   version="1.1"
   id="svg1"
   sodipodi:docname="codepen-01.svg"
   inkscape:version="1.4 (86a8ad7, 2024-10-11)"
   xmlns:inkscape="http://www.inkscape.org/namespaces/inkscape"
   xmlns:sodipodi="http://sodipodi.sourceforge.net/DTD/sodipodi-0.dtd"
   xmlns="http://www.w3.org/2000/svg"
   xmlns:svg="http://www.w3.org/2000/svg">
  <defs
     id="defs1" />
  <sodipodi:namedview
     id="namedview1"
     pagecolor="#ffffff"
     bordercolor="#000000"
     borderopacity="0.25"
     inkscape:showpageshadow="2"
     inkscape:pageopacity="0.0"
     inkscape:pagecheckerboard="0"
     inkscape:deskcolor="#d1d1d1"
     inkscape:zoom="1.5917969"
     inkscape:cx="256"
     inkscape:cy="256"
     inkscape:window-width="1920"
     inkscape:window-height="1017"
     inkscape:window-x="1042"
     inkscape:window-y="519"
     inkscape:window-maximized="1"
     inkscape:current-layer="svg1" />
  <path
     d="M 256.002,0.5 C 114.889,0.5 0.5,114.891 0.5,256.002 0.5,397.115 114.889,511.5 256.002,511.5 397.111,511.5 511.5,397.115 511.5,256.002 511.5,114.891 397.111,0.5 256.002,0.5 Z m 0,483.041 c -117.747,0 -227.538,-109.795 -227.538,-227.539 0,-117.742 109.792,-227.538 227.538,-227.538 117.744,0 227.535,109.796 227.535,227.538 0,117.744 -109.791,227.539 -227.535,227.539 z M 413.859,206.098 c -0.027,-0.199 -0.078,-0.39 -0.111,-0.589 -0.066,-0.384 -0.137,-0.767 -0.236,-1.14 -0.059,-0.225 -0.143,-0.44 -0.213,-0.656 -0.107,-0.333 -0.217,-0.665 -0.348,-0.989 -0.094,-0.224 -0.201,-0.448 -0.305,-0.664 -0.143,-0.309 -0.291,-0.607 -0.461,-0.897 -0.125,-0.217 -0.258,-0.425 -0.387,-0.632 -0.182,-0.283 -0.369,-0.558 -0.574,-0.823 -0.148,-0.2 -0.307,-0.398 -0.465,-0.591 -0.215,-0.248 -0.439,-0.498 -0.678,-0.73 -0.178,-0.183 -0.354,-0.365 -0.539,-0.532 -0.25,-0.224 -0.508,-0.441 -0.77,-0.647 -0.203,-0.158 -0.402,-0.316 -0.615,-0.466 -0.078,-0.05 -0.148,-0.116 -0.223,-0.167 L 263.53,100.306 c -4.563,-3.041 -10.501,-3.041 -15.063,0 l -144.403,96.269 c -0.075,0.051 -0.146,0.117 -0.224,0.167 -0.213,0.149 -0.412,0.308 -0.611,0.466 -0.266,0.206 -0.524,0.424 -0.768,0.647 -0.192,0.167 -0.366,0.35 -0.544,0.532 -0.237,0.232 -0.46,0.482 -0.673,0.73 -0.162,0.192 -0.32,0.391 -0.469,0.591 -0.199,0.266 -0.392,0.54 -0.57,0.823 -0.137,0.207 -0.265,0.415 -0.39,0.632 -0.167,0.29 -0.316,0.589 -0.462,0.897 -0.104,0.216 -0.211,0.44 -0.303,0.664 -0.133,0.324 -0.241,0.656 -0.35,0.989 -0.071,0.216 -0.149,0.432 -0.211,0.656 -0.101,0.373 -0.167,0.756 -0.238,1.14 -0.032,0.199 -0.083,0.39 -0.107,0.589 -0.08,0.582 -0.125,1.172 -0.125,1.771 v 96.269 c 0,0.598 0.045,1.188 0.125,1.779 0.025,0.191 0.075,0.39 0.107,0.58 0.071,0.384 0.137,0.766 0.238,1.14 0.063,0.225 0.141,0.44 0.211,0.656 0.109,0.332 0.217,0.665 0.35,0.997 0.092,0.226 0.199,0.441 0.303,0.657 0.146,0.307 0.295,0.605 0.462,0.905 0.125,0.209 0.252,0.415 0.39,0.623 0.179,0.283 0.371,0.558 0.57,0.824 0.149,0.207 0.307,0.397 0.469,0.589 0.213,0.249 0.437,0.499 0.673,0.732 0.179,0.182 0.353,0.364 0.544,0.529 0.244,0.227 0.502,0.442 0.768,0.65 0.199,0.158 0.398,0.315 0.611,0.465 0.078,0.05 0.149,0.116 0.224,0.166 l 144.403,96.27 c 2.281,1.52 4.908,2.285 7.534,2.285 2.621,0 5.248,-0.766 7.529,-2.285 l 144.404,-96.27 c 0.074,-0.05 0.145,-0.116 0.223,-0.166 0.213,-0.149 0.412,-0.307 0.615,-0.465 0.262,-0.208 0.52,-0.424 0.77,-0.65 0.186,-0.165 0.361,-0.348 0.539,-0.529 0.238,-0.233 0.463,-0.483 0.678,-0.732 0.158,-0.191 0.316,-0.382 0.465,-0.589 0.205,-0.267 0.393,-0.541 0.574,-0.824 0.129,-0.208 0.262,-0.414 0.387,-0.623 0.17,-0.3 0.318,-0.599 0.461,-0.905 0.104,-0.216 0.211,-0.432 0.305,-0.657 0.131,-0.332 0.24,-0.665 0.348,-0.997 0.07,-0.216 0.154,-0.432 0.213,-0.656 0.1,-0.374 0.17,-0.756 0.236,-1.14 0.033,-0.19 0.084,-0.389 0.111,-0.58 0.074,-0.591 0.121,-1.182 0.121,-1.779 v -96.269 c 0,-0.599 -0.046,-1.189 -0.121,-1.771 z m -144.281,-69.127 106.377,70.913 -47.516,31.788 -58.861,-39.375 z m -27.155,0 v 63.326 l -58.859,39.375 -47.52,-31.788 z m -117.248,96.311 33.968,22.72 -33.968,22.722 z m 117.248,141.752 -106.379,-70.915 47.52,-31.778 58.859,39.367 z m 13.579,-86.912 -48.022,-32.12 48.022,-32.12 48.018,32.12 z m 13.576,86.912 v -63.326 l 58.861,-39.367 47.516,31.778 z m 117.248,-96.31 -33.965,-22.722 33.965,-22.72 z"
     id="path1"
     style="stroke-width:0.3;stroke-dasharray:none"
     sodipodi:nodetypes="sssssssssscccccccccccccccccccccccccsccccccssccccccccccccccccsccccccccccccccccsscccccccccccccccccccccccccccccccccc" />
</svg>
