<?xml version="1.0" encoding="UTF-8" standalone="no"?>
<svg
   fill="none"
   height="24"
   viewBox="0 0 24 24"
   width="24"
   version="1.1"
   id="svg1"
   sodipodi:docname="github.svg"
   inkscape:version="1.4 (86a8ad7, 2024-10-11)"
   xmlns:inkscape="http://www.inkscape.org/namespaces/inkscape"
   xmlns:sodipodi="http://sodipodi.sourceforge.net/DTD/sodipodi-0.dtd"
   xmlns="http://www.w3.org/2000/svg"
   xmlns:svg="http://www.w3.org/2000/svg">
  <defs
     id="defs1" />
  <sodipodi:namedview
     id="namedview1"
     pagecolor="#ffffff"
     bordercolor="#000000"
     borderopacity="0.25"
     inkscape:showpageshadow="2"
     inkscape:pageopacity="0.0"
     inkscape:pagecheckerboard="0"
     inkscape:deskcolor="#d1d1d1"
     inkscape:zoom="33.958333"
     inkscape:cx="12"
     inkscape:cy="12"
     inkscape:window-width="1920"
     inkscape:window-height="1017"
     inkscape:window-x="1042"
     inkscape:window-y="519"
     inkscape:window-maximized="1"
     inkscape:current-layer="svg1" />
  <path
     clip-rule="evenodd"
     d="m 12.000004,0.57830426 c -6.310489,0 -11.42169974,5.24126764 -11.42169974,11.71232974 0,5.182707 3.26946164,9.560189 7.80958744,11.112073 0.571085,0.102486 0.7852415,-0.248886 0.7852415,-0.556335 0,-0.278168 -0.014272,-1.200514 -0.014272,-2.181421 C 6.2891543,21.206645 5.5467438,19.94757 5.3183097,19.288751 5.1898156,18.952022 4.6330078,17.912553 4.1475855,17.634385 3.747826,17.414778 3.1767411,16.873084 4.1333084,16.858443 c 0.8994589,-0.01464 1.5419295,0.849144 1.7560864,1.200514 1.027953,1.77149 2.6698224,1.273716 3.3265703,0.966268 0.099936,-0.761302 0.3997598,-1.273716 0.728133,-1.566525 -2.541328,-0.292808 -5.1968733,-1.302996 -5.1968733,-5.782963 0,-1.273716 0.4425908,-2.3278259 1.1707242,-3.1476887 C 5.803732,8.23524 5.4039725,7.0347262 6.032166,5.4242808 c 0,0 0.9565675,-0.3074487 3.1409672,1.2005139 0.9137358,-0.2635275 1.8845808,-0.3952912 2.8554258,-0.3952912 0.970844,0 1.941689,0.1317637 2.855425,0.3952912 2.1844,-1.522603 3.140967,-1.2005139 3.140967,-1.2005139 0.628194,1.6104454 0.228434,2.8109592 0.114217,3.1037675 0.728133,0.8198628 1.170724,1.8593317 1.170724,3.1476887 0,4.494607 -2.669822,5.490155 -5.211151,5.782963 0.414038,0.366011 0.770965,1.06875 0.770965,2.166781 0,1.566524 -0.01427,2.825599 -0.01427,3.220891 0,0.307449 0.214157,0.673459 0.785243,0.556335 2.267435,-0.78496 4.237679,-2.279219 5.633524,-4.272658 1.395846,-1.993321 2.146938,-4.38533 2.147509,-6.839415 0,-6.4710621 -5.111211,-11.71232974 -11.4217,-11.71232974 z"
     fill-rule="evenodd"
     stroke="#000000"
     stroke-linejoin="round"
     id="path1"
     style="stroke-width:1.15661" />
</svg>
